<svg width="40" height="31" viewBox="0 0 40 31" fill="none" xmlns="http://www.w3.org/2000/svg">
<path d="M33.2594 3.0642C30.8105 1.92262 28.1591 1.09405 25.3972 0.615319C25.373 0.614545 25.3489 0.619089 25.3266 0.628633C25.3043 0.638177 25.2844 0.652488 25.2683 0.670557C24.9369 1.27818 24.5502 2.06992 24.2924 2.67754C21.363 2.23563 18.3838 2.23563 15.4543 2.67754C15.1966 2.05151 14.8099 1.27818 14.4601 0.670557C14.4416 0.633732 14.3864 0.615319 14.3312 0.615319C11.5693 1.09405 8.93626 1.92262 6.46896 3.0642C6.45054 3.0642 6.43213 3.08262 6.41372 3.10103C1.40547 10.595 0.0245218 17.8864 0.705791 25.1042C0.705791 25.141 0.724203 25.1778 0.761029 25.1962C4.07531 27.6267 7.2607 29.0997 10.4093 30.0756C10.4645 30.094 10.5197 30.0756 10.5382 30.0388C11.2747 29.0261 11.9375 27.9581 12.5083 26.835C12.5451 26.7613 12.5083 26.6877 12.4347 26.6693C11.3851 26.2642 10.3909 25.7854 9.41499 25.2331C9.34133 25.1962 9.34133 25.0858 9.39657 25.0305C9.59911 24.8832 9.80165 24.7175 10.0042 24.5702C10.041 24.5334 10.0963 24.5334 10.1331 24.5518C16.467 27.4426 23.2981 27.4426 29.5584 24.5518C29.5953 24.5334 29.6505 24.5334 29.6873 24.5702C29.8899 24.7359 30.0924 24.8832 30.295 25.0489C30.3686 25.1042 30.3686 25.2147 30.2765 25.2515C29.3191 25.8223 28.3064 26.2826 27.2569 26.6877C27.1832 26.7061 27.1648 26.7981 27.1832 26.8534C27.7724 27.9766 28.4353 29.0445 29.1534 30.0572C29.2086 30.0756 29.2638 30.094 29.3191 30.0756C32.4861 29.0997 35.6715 27.6267 38.9857 25.1962C39.0226 25.1778 39.041 25.141 39.041 25.1042C39.8511 16.7632 37.6968 9.52705 33.333 3.10103C33.3146 3.08262 33.2962 3.0642 33.2594 3.0642ZM13.4658 20.7035C11.5693 20.7035 9.98578 18.9543 9.98578 16.8001C9.98578 14.6458 11.5324 12.8966 13.4658 12.8966C15.4175 12.8966 16.9642 14.6642 16.9458 16.8001C16.9458 18.9543 15.3991 20.7035 13.4658 20.7035ZM26.2994 20.7035C24.4029 20.7035 22.8194 18.9543 22.8194 16.8001C22.8194 14.6458 24.3661 12.8966 26.2994 12.8966C28.2511 12.8966 29.7978 14.6642 29.7794 16.8001C29.7794 18.9543 28.2511 20.7035 26.2994 20.7035Z" fill="#171118"/>
</svg>
