<svg width="34" height="35" viewBox="0 0 34 35" fill="none" xmlns="http://www.w3.org/2000/svg">
<path d="M10.0222 0.677368H24.0222C29.3555 0.677368 33.6889 5.0107 33.6889 10.344V24.344C33.6889 26.9078 32.6704 29.3666 30.8576 31.1794C29.0447 32.9923 26.586 34.0107 24.0222 34.0107H10.0222C4.68886 34.0107 0.35553 29.6774 0.35553 24.344V10.344C0.35553 7.78028 1.37398 5.32152 3.18683 3.50867C4.99968 1.69582 7.45844 0.677368 10.0222 0.677368ZM9.68886 4.0107C8.09756 4.0107 6.57144 4.64284 5.44622 5.76806C4.321 6.89328 3.68886 8.4194 3.68886 10.0107V24.6774C3.68886 27.994 6.3722 30.6774 9.68886 30.6774H24.3555C25.9468 30.6774 27.473 30.0452 28.5982 28.92C29.7234 27.7948 30.3555 26.2687 30.3555 24.6774V10.0107C30.3555 6.69403 27.6722 4.0107 24.3555 4.0107H9.68886ZM25.7722 6.5107C26.3247 6.5107 26.8546 6.7302 27.2453 7.1209C27.636 7.5116 27.8555 8.0415 27.8555 8.59404C27.8555 9.14657 27.636 9.67647 27.2453 10.0672C26.8546 10.4579 26.3247 10.6774 25.7722 10.6774C25.2197 10.6774 24.6898 10.4579 24.2991 10.0672C23.9084 9.67647 23.6889 9.14657 23.6889 8.59404C23.6889 8.0415 23.9084 7.5116 24.2991 7.1209C24.6898 6.7302 25.2197 6.5107 25.7722 6.5107ZM17.0222 9.0107C19.2323 9.0107 21.352 9.88868 22.9148 11.4515C24.4776 13.0143 25.3555 15.1339 25.3555 17.344C25.3555 19.5542 24.4776 21.6738 22.9148 23.2366C21.352 24.7994 19.2323 25.6774 17.0222 25.6774C14.8121 25.6774 12.6924 24.7994 11.1296 23.2366C9.56684 21.6738 8.68886 19.5542 8.68886 17.344C8.68886 15.1339 9.56684 13.0143 11.1296 11.4515C12.6924 9.88868 14.8121 9.0107 17.0222 9.0107ZM17.0222 12.344C15.6961 12.344 14.4243 12.8708 13.4867 13.8085C12.549 14.7462 12.0222 16.018 12.0222 17.344C12.0222 18.6701 12.549 19.9419 13.4867 20.8796C14.4243 21.8173 15.6961 22.344 17.0222 22.344C18.3483 22.344 19.6201 21.8173 20.5577 20.8796C21.4954 19.9419 22.0222 18.6701 22.0222 17.344C22.0222 16.018 21.4954 14.7462 20.5577 13.8085C19.6201 12.8708 18.3483 12.344 17.0222 12.344Z" fill="#171118"/>
</svg>
