<svg width="346" height="37" viewBox="0 0 346 37" fill="none" xmlns="http://www.w3.org/2000/svg">
<path d="M20.469 3.42054C20.3794 3.3608 20.2588 3.31766 20.1314 3.28448C19.4252 3.09532 18.6638 2.94266 17.8646 3.0024C17.062 3.06213 16.2214 3.33757 15.3567 4.00461C13.8306 4.00461 12.7662 4.83425 12.1564 5.82983C11.5432 6.8254 11.3848 7.98691 11.6672 8.65063C10.9576 8.65063 10.0791 9.0024 9.37983 9.66279C8.68051 10.3232 8.16033 11.2889 8.16033 12.5168C8.16033 12.5168 4.16769 16.4924 6.04516 18.4006C4.16769 20.8564 8.16033 23.9891 8.16033 23.9891C8.16033 25.217 8.68051 26.186 9.37983 26.8431C10.0791 27.5035 10.9541 27.8553 11.6672 27.8553C11.3848 28.519 11.5432 29.6805 12.1564 30.6761C12.7696 31.6716 13.8306 32.5013 15.3567 32.5013C16.2248 33.1683 17.0654 33.4438 17.8646 33.5035C18.6673 33.5632 19.4252 33.4106 20.1314 33.2214C20.2588 33.1882 20.3794 33.1451 20.469 33.0854C20.5585 33.0256 20.6171 32.9493 20.6171 32.8464V3.65616C20.6171 3.55328 20.5585 3.47695 20.469 3.41722V3.42054Z" fill="#CA09D7"/>
<path d="M34.6172 12.5201C34.6172 11.2922 34.097 10.3232 33.3977 9.66611C32.6984 9.00571 31.8234 8.65394 31.1103 8.65394C31.3927 7.99023 31.2343 6.82872 30.6211 5.83315C30.0079 4.83757 28.9469 4.00793 27.4208 4.00793C26.5527 3.34089 25.7121 3.06545 24.9129 3.00571C24.1137 2.94598 23.3523 3.09863 22.6461 3.28779C22.5187 3.32098 22.3981 3.36412 22.3085 3.42386C22.219 3.48359 22.1604 3.55992 22.1604 3.66279V32.8531C22.1604 32.9559 22.219 33.0323 22.3085 33.092C22.3981 33.1517 22.5187 33.1949 22.6461 33.2281C23.3523 33.4172 24.1137 33.5699 24.9129 33.5101C25.7155 33.4504 26.5561 33.175 27.4208 32.5079C28.9469 32.5079 30.0113 31.6783 30.6211 30.6827C31.2343 29.6871 31.3927 28.5256 31.1103 27.8619C31.8199 27.8619 32.6984 27.5101 33.3977 26.8497C34.097 26.1893 34.6172 25.2236 34.6172 23.9958C34.6172 23.9958 38.6098 20.8663 36.7323 18.4073C38.6098 16.4991 34.6172 12.5234 34.6172 12.5234V12.5201Z" fill="#CA09D7"/>
<path d="M9.79666 3.7358C10.6854 2.2524 12.3459 1.32983 14.1235 1.32983H15.3498V0.257927H14.1235C11.9497 0.257927 9.92068 1.38625 8.83553 3.20151L1.57712 15.3143C0.488534 17.1296 0.488534 19.3829 1.57712 21.1982L8.83898 33.3143C9.92756 35.1296 11.9532 36.2546 14.1269 36.2546H15.3533V35.186H14.1269C12.3459 35.186 10.6889 34.2635 9.8001 32.7801L2.53825 20.6639C1.64602 19.1805 1.64602 17.3354 2.53825 15.8486L9.79666 3.7358ZM41.2004 15.3143L33.9385 3.19819C32.8499 1.38293 30.8243 0.254608 28.6506 0.254608H27.4242V1.32319H28.6506C30.4316 1.32319 32.0886 2.24576 32.9808 3.72917L40.2427 15.8453C41.1315 17.3287 41.1315 19.1739 40.2427 20.6606L32.9808 32.7767C32.0921 34.2601 30.4316 35.1827 28.6506 35.1827H27.4242V36.2513H28.6506C30.8243 36.2513 32.8534 35.123 33.9385 33.311L41.2004 21.1949C42.289 19.3796 42.289 17.1263 41.2004 15.311V15.3143Z" fill="#CA09D7"/>
<path d="M59.5755 30.5068C57.5292 30.5068 55.9273 30.2281 54.7733 29.6739C53.6193 29.1197 52.8131 28.2867 52.3515 27.175C51.8899 26.0632 51.6591 24.6893 51.6591 23.05V13.7579C51.6591 11.0898 52.2792 9.12518 53.5193 7.8608C54.7595 6.59642 56.7782 5.96589 59.5755 5.96589H72.5938C74.5849 5.96589 76.1041 6.06877 77.1583 6.27784C78.209 6.48691 78.736 6.70262 78.736 6.92496L77.8714 10.3829C77.3822 10.3 75.9319 10.2104 73.5239 10.1108C71.1159 10.0146 67.6193 9.96478 63.0342 9.96478H60.8294C58.5213 9.96478 57.3708 10.9504 57.3708 12.9216V23.5477C57.3708 24.4935 57.6222 25.2203 58.1286 25.7347C58.6316 26.2491 59.5342 26.5046 60.8329 26.5046H62.607C67.392 26.5046 71.1056 26.4548 73.7444 26.3586C76.3832 26.2624 78.0195 26.1562 78.6534 26.0466L80.4275 28.7977C80.4275 28.9371 80.1898 29.1462 79.7144 29.4216C79.239 29.7004 78.3674 29.9493 77.0963 30.1716C75.8285 30.394 73.9958 30.5035 71.6016 30.5035H59.5789L59.5755 30.5068Z" fill="#CA09D7"/>
<path d="M91.148 30.925C88.523 30.925 86.6938 30.2447 85.6568 28.884C84.6199 27.5234 84.0997 25.7181 84.0997 23.4681V6.00903H89.8079V23.634C89.8079 24.9416 90.1387 25.8143 90.8035 26.259C91.4649 26.7037 92.2883 26.9261 93.2701 26.9261H102.44C103.364 26.9261 104.17 26.6971 104.862 26.2391C105.555 25.7812 105.899 24.9117 105.899 23.634V6.00903H111.607V23.4681C111.607 24.9681 111.39 26.2756 110.96 27.384C110.526 28.4958 109.806 29.3619 108.796 29.9891C107.787 30.613 106.388 30.9283 104.6 30.9283H91.148V30.925Z" fill="#CA09D7"/>
<path d="M122.721 30.5068C120.76 30.5068 119.317 30.4239 118.394 30.2579C117.471 30.092 117.009 29.8962 117.009 29.6739L118.738 26.05C119.4 26.1595 121.053 26.2657 123.692 26.3619C126.331 26.4581 129.955 26.5079 134.571 26.5079H135.394C136.634 26.5079 137.513 26.2922 138.033 25.8608C138.553 25.4294 138.812 24.7026 138.812 23.6739V22.8409C138.812 21.8685 138.602 21.175 138.185 20.7568C137.768 20.3387 136.838 20.1329 135.394 20.1329H125.359C122.445 20.1329 120.326 19.6119 119 18.5699C117.674 17.5278 117.009 15.8287 117.009 13.4659V12.7989C117.009 11.5776 117.247 10.4526 117.722 9.42386C118.197 8.39841 119.01 7.56877 120.164 6.94487C121.318 6.32098 122.903 6.00571 124.922 6.00571H136.686C138.646 6.00571 140.231 6.10195 141.444 6.29775C142.656 6.49355 143.259 6.6993 143.259 6.92164L142.394 10.4227C141.643 10.3398 139.942 10.2502 137.292 10.1506C134.64 10.0544 131.078 10.0046 126.61 10.0046L126.134 9.96478C124.808 9.96478 123.912 10.2203 123.454 10.7347C122.993 11.2491 122.748 11.8962 122.721 12.6727V13.3796C122.721 14.2955 122.986 14.9825 123.52 15.4404C124.054 15.8984 124.939 16.1274 126.179 16.1274H135.78C137.627 16.1274 139.198 16.3099 140.496 16.6683C141.795 17.03 142.787 17.6904 143.48 18.6462C144.172 19.6053 144.516 21.0157 144.516 22.8741V23.5411C144.516 25.6252 143.962 27.3044 142.853 28.582C141.743 29.8597 139.818 30.5002 137.079 30.5002H122.721V30.5068Z" fill="#CA09D7"/>
<path d="M150.576 30.5068V6.00903H177.477V10.0079H156.284V15.759H172.461V19.884H156.284V26.5079H177.649L179.379 30.0489C179.379 30.1584 178.99 30.2646 178.211 30.3608C177.432 30.457 176.092 30.5068 174.187 30.5068H150.573H150.576Z" fill="#CA09D7"/>
<path d="M183.706 30.5068V6.00903H189.414V16.1739H206.37V6.00903H212.078V30.5068H206.37V20.1727H189.414V30.5068H183.706Z" fill="#CA09D7"/>
<path d="M215.537 30.5068L228.21 6.00903H236.73L249.359 30.5068H242.7L240.147 25.2137H224.662L221.851 30.5068H215.537ZM238.545 21.1318L232.62 9.75571H232.186L226.216 21.1318H238.545Z" fill="#CA09D7"/>
<path d="M259.438 30.5068C257.392 30.5068 255.79 30.2281 254.636 29.6739C253.482 29.1197 252.676 28.2867 252.214 27.175C251.753 26.0632 251.522 24.6893 251.522 23.05V13.7579C251.522 11.0898 252.142 9.12518 253.382 7.8608C254.622 6.59642 256.641 5.96589 259.438 5.96589H272.457C274.448 5.96589 275.967 6.06877 277.021 6.27784C278.072 6.48691 278.599 6.70262 278.599 6.92496L277.734 10.3829C277.245 10.3 275.795 10.2104 273.387 10.1108C270.979 10.0146 267.482 9.96478 262.897 9.96478H260.692C258.384 9.96478 257.234 10.9504 257.234 12.9216V23.5477C257.234 24.4935 257.485 25.2203 257.991 25.7347C258.494 26.2491 259.397 26.5046 260.696 26.5046H262.47C267.255 26.5046 270.968 26.4548 273.607 26.3586C276.246 26.2624 277.882 26.1562 278.516 26.0466L280.29 28.7977C280.29 28.9371 280.053 29.1462 279.577 29.4216C279.102 29.7004 278.23 29.9493 276.959 30.1716C275.691 30.394 273.859 30.5035 271.465 30.5035H259.442L259.438 30.5068Z" fill="#CA09D7"/>
<path d="M311.729 30.925C310.316 30.925 309.09 30.6462 308.053 30.092C307.016 29.5378 305.989 28.7878 304.983 27.842C303.888 26.7303 302.562 25.4526 301.005 24.009C300.285 23.2856 299.547 22.6916 298.8 22.217C298.049 21.7458 297.205 21.384 296.271 21.1351C295.334 20.8862 294.173 20.7601 292.788 20.7601H290.756V30.5101H285.048V9.34089L284.614 6.00903H290.756V16.675H293.178C293.753 16.675 294.228 16.6053 294.604 16.4659C294.979 16.3265 295.324 16.1042 295.641 15.7989C296.447 15.0223 297.37 14.05 298.411 12.8818C299.447 11.717 300.464 10.5157 301.459 9.27784C302.455 8.04332 303.313 6.95151 304.033 6.00571H311.04L309.265 8.50461C308.459 9.31102 307.591 10.1871 306.671 11.1296C305.748 12.0754 304.839 12.998 303.946 13.9006C303.051 14.8033 302.245 15.5964 301.525 16.2767C300.805 16.957 300.271 17.4515 299.923 17.7568C300.701 18.0057 301.414 18.3276 302.062 18.7159C302.71 19.1042 303.512 19.675 304.463 20.425C305.183 20.9825 305.883 21.55 306.561 22.134C307.24 22.7181 308.025 23.4117 308.917 24.2181C309.927 25.1075 310.878 25.7612 311.773 26.1761C312.666 26.5942 313.423 26.8564 314.043 26.9692C314.664 27.082 315.06 27.1351 315.232 27.1351L314.367 30.5101C314.281 30.5931 314.023 30.6827 313.589 30.7823C313.155 30.8785 312.535 30.9283 311.729 30.9283V30.925Z" fill="#CA09D7"/>
<path d="M323.968 30.5068C322.008 30.5068 320.565 30.4239 319.645 30.2579C318.722 30.092 318.26 29.8962 318.26 29.6739L319.989 26.05C320.651 26.1595 322.304 26.2657 324.943 26.3619C327.582 26.4581 331.206 26.5079 335.822 26.5079H336.642C337.882 26.5079 338.761 26.2922 339.281 25.8608C339.801 25.4294 340.059 24.7026 340.059 23.6739V22.8409C340.059 21.8685 339.849 21.175 339.432 20.7568C339.016 20.3387 338.085 20.1329 336.642 20.1329H326.607C323.693 20.1329 321.574 19.6119 320.248 18.5699C318.921 17.5278 318.257 15.8287 318.257 13.4659V12.7989C318.257 11.5776 318.494 10.4526 318.97 9.42386C319.445 8.39841 320.262 7.56877 321.412 6.94487C322.566 6.32098 324.151 6.00571 326.17 6.00571H337.934C339.894 6.00571 341.482 6.10195 342.691 6.29775C343.904 6.49355 344.507 6.6993 344.507 6.92164L343.642 10.4227C342.891 10.3398 341.189 10.2502 338.537 10.1506C335.884 10.0544 332.322 10.0046 327.854 10.0046L327.379 9.96478C326.052 9.96478 325.157 10.2203 324.699 10.7347C324.237 11.2491 323.992 11.8962 323.965 12.6727V13.3796C323.965 14.2955 324.23 14.9825 324.764 15.4404C325.298 15.8984 326.183 16.1274 327.423 16.1274H337.024C338.871 16.1274 340.442 16.3099 341.74 16.6683C343.039 17.03 344.031 17.6904 344.724 18.6462C345.416 19.602 345.761 21.0157 345.761 22.8741V23.5411C345.761 25.6252 345.206 27.3044 344.097 28.582C342.988 29.8597 341.062 30.5002 338.323 30.5002H323.965L323.968 30.5068Z" fill="#CA09D7"/>
</svg>
