<svg width="41" height="40" viewBox="0 0 41 40" fill="none" xmlns="http://www.w3.org/2000/svg">
<g id="icon">
<path id="Vector" d="M33.9038 7.72027C31.4549 6.57869 28.8035 5.75012 26.0416 5.27139C26.0174 5.27061 25.9933 5.27516 25.971 5.2847C25.9488 5.29424 25.9288 5.30855 25.9127 5.32662C25.5813 5.93424 25.1946 6.72599 24.9368 7.33361C22.0074 6.8917 19.0282 6.8917 16.0988 7.33361C15.841 6.70757 15.4543 5.93424 15.1045 5.32662C15.0861 5.2898 15.0308 5.27139 14.9756 5.27139C12.2137 5.75012 9.58066 6.57869 7.11337 7.72027C7.09495 7.72027 7.07654 7.73868 7.05813 7.7571C2.04988 15.2511 0.668931 22.5425 1.3502 29.7602C1.3502 29.7971 1.36861 29.8339 1.40544 29.8523C4.71972 32.2828 7.90511 33.7558 11.0537 34.7317C11.1089 34.7501 11.1642 34.7317 11.1826 34.6948C11.9191 33.6821 12.5819 32.6142 13.1527 31.491C13.1895 31.4174 13.1527 31.3437 13.0791 31.3253C12.0295 30.9202 11.0353 30.4415 10.0594 29.8891C9.98574 29.8523 9.98574 29.7418 10.041 29.6866C10.2435 29.5393 10.4461 29.3736 10.6486 29.2263C10.6854 29.1894 10.7407 29.1894 10.7775 29.2079C17.1114 32.0986 23.9425 32.0986 30.2029 29.2079C30.2397 29.1894 30.2949 29.1894 30.3317 29.2263C30.5343 29.392 30.7368 29.5393 30.9394 29.705C31.013 29.7602 31.013 29.8707 30.9209 29.9075C29.9635 30.4783 28.9508 30.9387 27.9013 31.3437C27.8276 31.3621 27.8092 31.4542 27.8276 31.5094C28.4168 32.6326 29.0797 33.7006 29.7978 34.7133C29.853 34.7317 29.9083 34.7501 29.9635 34.7317C33.1305 33.7558 36.3159 32.2828 39.6301 29.8523C39.667 29.8339 39.6854 29.7971 39.6854 29.7602C40.4955 21.4193 38.3413 14.1831 33.9775 7.7571C33.959 7.73868 33.9406 7.72027 33.9038 7.72027ZM14.1102 25.3596C12.2137 25.3596 10.6302 23.6104 10.6302 21.4561C10.6302 19.3018 12.1769 17.5526 14.1102 17.5526C16.0619 17.5526 17.6086 19.3203 17.5902 21.4561C17.5902 23.6104 16.0435 25.3596 14.1102 25.3596ZM26.9438 25.3596C25.0473 25.3596 23.4638 23.6104 23.4638 21.4561C23.4638 19.3018 25.0105 17.5526 26.9438 17.5526C28.8956 17.5526 30.4422 19.3203 30.4238 21.4561C30.4238 23.6104 28.8956 25.3596 26.9438 25.3596Z" fill="#171118"/>
</g>
</svg>
