<svg width="16" height="16" viewBox="0 0 16 16" fill="none" xmlns="http://www.w3.org/2000/svg">
<g id="icon">
<path id="Vector" fill-rule="evenodd" clip-rule="evenodd" d="M3.5 4H12.5C12.75 4 12.985 4.06 13.192 4.169L8.75 7.5C8.53363 7.66228 8.27046 7.75 8 7.75C7.72954 7.75 7.46637 7.66228 7.25 7.5L2.808 4.169C3.015 4.06 3.251 4 3.5 4ZM2.001 5.438L2 5.5V10.5C2 10.8978 2.15804 11.2794 2.43934 11.5607C2.72064 11.842 3.10218 12 3.5 12H12.5C12.8978 12 13.2794 11.842 13.5607 11.5607C13.842 11.2794 14 10.8978 14 10.5V5.5L13.999 5.438L9.65 8.7C9.17399 9.05701 8.59502 9.25 8 9.25C7.40498 9.25 6.82601 9.05701 6.35 8.7L2.001 5.438ZM0.5 5.5C0.5 4.70435 0.81607 3.94129 1.37868 3.37868C1.94129 2.81607 2.70435 2.5 3.5 2.5H12.5C13.2956 2.5 14.0587 2.81607 14.6213 3.37868C15.1839 3.94129 15.5 4.70435 15.5 5.5V10.5C15.5 11.2956 15.1839 12.0587 14.6213 12.6213C14.0587 13.1839 13.2956 13.5 12.5 13.5H3.5C2.70435 13.5 1.94129 13.1839 1.37868 12.6213C0.81607 12.0587 0.5 11.2956 0.5 10.5V5.5Z" fill="#CA09D7"/>
</g>
</svg>
