<svg width="34" height="34" viewBox="0 0 34 34" fill="none" xmlns="http://www.w3.org/2000/svg">
<path id="Vector" d="M10.3333 0.333313H24.3333C29.6666 0.333313 34 4.66665 34 9.99998V24C34 26.5637 32.9815 29.0225 31.1687 30.8353C29.3558 32.6482 26.8971 33.6666 24.3333 33.6666H10.3333C4.99996 33.6666 0.666626 29.3333 0.666626 24V9.99998C0.666626 7.43622 1.68508 4.97747 3.49793 3.16461C5.31078 1.35176 7.76953 0.333313 10.3333 0.333313ZM9.99996 3.66665C8.40866 3.66665 6.88254 4.29879 5.75732 5.42401C4.6321 6.54922 3.99996 8.07535 3.99996 9.66665V24.3333C3.99996 27.65 6.68329 30.3333 9.99996 30.3333H24.6666C26.2579 30.3333 27.7841 29.7012 28.9093 28.576C30.0345 27.4507 30.6666 25.9246 30.6666 24.3333V9.66665C30.6666 6.34998 27.9833 3.66665 24.6666 3.66665H9.99996ZM26.0833 6.16665C26.6358 6.16665 27.1657 6.38614 27.5564 6.77684C27.9471 7.16754 28.1666 7.69745 28.1666 8.24998C28.1666 8.80251 27.9471 9.33242 27.5564 9.72312C27.1657 10.1138 26.6358 10.3333 26.0833 10.3333C25.5308 10.3333 25.0009 10.1138 24.6102 9.72312C24.2195 9.33242 24 8.80251 24 8.24998C24 7.69745 24.2195 7.16754 24.6102 6.77684C25.0009 6.38614 25.5308 6.16665 26.0833 6.16665ZM17.3333 8.66665C19.5434 8.66665 21.663 9.54462 23.2259 11.1074C24.7887 12.6702 25.6666 14.7898 25.6666 17C25.6666 19.2101 24.7887 21.3297 23.2259 22.8925C21.663 24.4553 19.5434 25.3333 17.3333 25.3333C15.1232 25.3333 13.0035 24.4553 11.4407 22.8925C9.87793 21.3297 8.99996 19.2101 8.99996 17C8.99996 14.7898 9.87793 12.6702 11.4407 11.1074C13.0035 9.54462 15.1232 8.66665 17.3333 8.66665ZM17.3333 12C16.0072 12 14.7354 12.5268 13.7978 13.4644C12.8601 14.4021 12.3333 15.6739 12.3333 17C12.3333 18.3261 12.8601 19.5978 13.7978 20.5355C14.7354 21.4732 16.0072 22 17.3333 22C18.6594 22 19.9311 21.4732 20.8688 20.5355C21.8065 19.5978 22.3333 18.3261 22.3333 17C22.3333 15.6739 21.8065 14.4021 20.8688 13.4644C19.9311 12.5268 18.6594 12 17.3333 12Z" fill="#171118"/>
</svg>
