<svg width="16" height="17" viewBox="0 0 16 17" fill="none" xmlns="http://www.w3.org/2000/svg">
<g id="icon">
<path id="Vector" fill-rule="evenodd" clip-rule="evenodd" d="M10.218 3.716C10.2498 3.62074 10.2622 3.52005 10.2544 3.41992C10.2466 3.31978 10.2187 3.22224 10.1725 3.13308C10.1262 3.04391 10.0626 2.96494 9.98522 2.90085C9.90789 2.83677 9.81847 2.78886 9.72227 2.75999C9.62607 2.73112 9.52505 2.72186 9.4252 2.73277C9.32536 2.74368 9.22872 2.77453 9.14103 2.8235C9.05333 2.87246 8.97636 2.93855 8.91469 3.01782C8.85302 3.0971 8.8079 3.18796 8.78201 3.285L5.78201 13.285C5.73315 13.4729 5.75907 13.6725 5.85431 13.8417C5.94956 14.0109 6.10672 14.1365 6.29273 14.1922C6.47874 14.2479 6.6791 14.2293 6.85166 14.1403C7.02423 14.0513 7.15555 13.8988 7.21801 13.715L10.218 3.715V3.716ZM4.53001 5.47C4.67046 5.61063 4.74935 5.80125 4.74935 6C4.74935 6.19875 4.67046 6.38938 4.53001 6.53L2.56001 8.5L4.53001 10.47C4.66249 10.6122 4.73461 10.8002 4.73119 10.9945C4.72776 11.1888 4.64905 11.3742 4.51163 11.5116C4.37422 11.649 4.18884 11.7277 3.99453 11.7312C3.80023 11.7346 3.61219 11.6625 3.47001 11.53L0.970011 9.03C0.829561 8.88938 0.750671 8.69875 0.750671 8.5C0.750671 8.30125 0.829561 8.11063 0.970011 7.97L3.47001 5.47C3.61064 5.32955 3.80126 5.25066 4.00001 5.25066C4.19876 5.25066 4.38939 5.32955 4.53001 5.47ZM11.47 11.53C11.3296 11.3894 11.2507 11.1988 11.2507 11C11.2507 10.8013 11.3296 10.6106 11.47 10.47L13.44 8.5L11.47 6.53C11.3375 6.38783 11.2654 6.19978 11.2688 6.00548C11.2723 5.81118 11.351 5.62579 11.4884 5.48838C11.6258 5.35097 11.8112 5.27225 12.0055 5.26883C12.1998 5.2654 12.3878 5.33752 12.53 5.47L15.03 7.97C15.1705 8.11063 15.2494 8.30125 15.2494 8.5C15.2494 8.69875 15.1705 8.88938 15.03 9.03L12.53 11.53C12.3894 11.6705 12.1988 11.7493 12 11.7493C11.8013 11.7493 11.6106 11.6705 11.47 11.53Z" fill="white"/>
</g>
</svg>
