<svg width="16" height="17" viewBox="0 0 16 17" fill="none" xmlns="http://www.w3.org/2000/svg">
<g id="icon">
<path id="Vector" fill-rule="evenodd" clip-rule="evenodd" d="M5.25 5.99699C5.05109 5.99699 4.86032 5.91797 4.71967 5.77732C4.57902 5.63666 4.5 5.4459 4.5 5.24699V4.49999C4.10218 4.49999 3.72064 4.65802 3.43934 4.93933C3.15804 5.22063 3 5.60216 3 5.99999V6.99999H13V5.99999C13 5.60216 12.842 5.22063 12.5607 4.93933C12.2794 4.65802 11.8978 4.49999 11.5 4.49999V5.24999C11.5 5.4489 11.421 5.63966 11.2803 5.78032C11.1397 5.92097 10.9489 5.99999 10.75 5.99999C10.5511 5.99999 10.3603 5.92097 10.2197 5.78032C10.079 5.63966 10 5.4489 10 5.24999V4.49999H6V5.24699C6 5.4459 5.92098 5.63666 5.78033 5.77732C5.63968 5.91797 5.44891 5.99699 5.25 5.99699ZM10 2.99999H6V2.24799C6 2.04907 5.92098 1.85831 5.78033 1.71766C5.63968 1.577 5.44891 1.49799 5.25 1.49799C5.05109 1.49799 4.86032 1.577 4.71967 1.71766C4.57902 1.85831 4.5 2.04907 4.5 2.24799V2.99999C3.70435 2.99999 2.94129 3.31606 2.37868 3.87867C1.81607 4.44127 1.5 5.20434 1.5 5.99999V12C1.5 12.7956 1.81607 13.5587 2.37868 14.1213C2.94129 14.6839 3.70435 15 4.5 15H11.5C12.2956 15 13.0587 14.6839 13.6213 14.1213C14.1839 13.5587 14.5 12.7956 14.5 12V5.99999C14.5 5.20434 14.1839 4.44127 13.6213 3.87867C13.0587 3.31606 12.2956 2.99999 11.5 2.99999V2.24999C11.5 2.05107 11.421 1.86031 11.2803 1.71966C11.1397 1.579 10.9489 1.49999 10.75 1.49999C10.5511 1.49999 10.3603 1.579 10.2197 1.71966C10.079 1.86031 10 2.05107 10 2.24999V2.99999ZM3 8.49999V12C3 12.3978 3.15804 12.7793 3.43934 13.0606C3.72064 13.342 4.10218 13.5 4.5 13.5H11.5C11.8978 13.5 12.2794 13.342 12.5607 13.0606C12.842 12.7793 13 12.3978 13 12V8.49999H3Z" fill="#CA09D7"/>
</g>
</svg>
