<svg width="16" height="17" viewBox="0 0 16 17" fill="none" xmlns="http://www.w3.org/2000/svg">
<g id="icon">
<path id="Vector" fill-rule="evenodd" clip-rule="evenodd" d="M3.125 7.5C3.125 6.20707 3.63861 4.96709 4.55285 4.05285C5.46709 3.13861 6.70707 2.625 8 2.625C9.29293 2.625 10.5329 3.13861 11.4471 4.05285C12.3614 4.96709 12.875 6.20707 12.875 7.5C12.875 9.364 12.101 10.462 11.188 11.315C10.803 11.675 10.423 11.965 10.018 12.273L9.653 12.553C9.37989 12.7603 9.11911 12.9833 8.872 13.221C8.629 13.461 8.337 13.796 8.142 14.231C8.12158 14.2821 8.08897 14.3274 8.047 14.363C8.04249 14.3665 8.03742 14.3692 8.032 14.371C8.032 14.371 8.022 14.375 8 14.375C7.978 14.375 7.969 14.372 7.968 14.372C7.96251 14.3699 7.95743 14.3669 7.953 14.363C7.91116 14.3277 7.87856 14.2827 7.858 14.232C7.67927 13.8531 7.43174 13.5106 7.128 13.222C6.88089 12.9843 6.62011 12.7613 6.347 12.554C6.222 12.457 6.101 12.364 5.981 12.274C5.5752 11.9742 5.18502 11.6537 4.812 11.314C3.9 10.463 3.125 9.365 3.125 7.5ZM14.5 7.5C14.5 10.9 12.434 12.475 10.97 13.591C10.336 14.076 9.814 14.473 9.625 14.896C9.355 15.5 8.788 16 8 16C7.212 16 6.646 15.5 6.375 14.896C6.185 14.473 5.665 14.076 5.029 13.591C3.566 12.475 1.5 10.899 1.5 7.5C1.5 5.77609 2.18482 4.12279 3.40381 2.90381C4.62279 1.68482 6.27609 1 8 1C9.72391 1 11.3772 1.68482 12.5962 2.90381C13.8152 4.12279 14.5 5.77609 14.5 7.5ZM9.5 7.5C9.5 7.89782 9.34196 8.27936 9.06066 8.56066C8.77936 8.84196 8.39782 9 8 9C7.60218 9 7.22064 8.84196 6.93934 8.56066C6.65804 8.27936 6.5 7.89782 6.5 7.5C6.5 7.10218 6.65804 6.72064 6.93934 6.43934C7.22064 6.15804 7.60218 6 8 6C8.39782 6 8.77936 6.15804 9.06066 6.43934C9.34196 6.72064 9.5 7.10218 9.5 7.5ZM11 7.5C11 8.29565 10.6839 9.05871 10.1213 9.62132C9.55871 10.1839 8.79565 10.5 8 10.5C7.20435 10.5 6.44129 10.1839 5.87868 9.62132C5.31607 9.05871 5 8.29565 5 7.5C5 6.70435 5.31607 5.94129 5.87868 5.37868C6.44129 4.81607 7.20435 4.5 8 4.5C8.79565 4.5 9.55871 4.81607 10.1213 5.37868C10.6839 5.94129 11 6.70435 11 7.5Z" fill="#CA09D7"/>
</g>
</svg>
